<mxfile host="app.diagrams.net" agent="Mozilla/5.0 (Windows NT 10.0; Win64; x64) AppleWebKit/537.36 (KHTML, like Gecko) Chrome/131.0.0.0 Safari/537.36" version="24.8.8">
  <diagram name="Página-1" id="T9LXrWtfXQ20ECc0KhG2">
    <mxGraphModel dx="453" dy="484" grid="1" gridSize="10" guides="1" tooltips="1" connect="1" arrows="1" fold="1" page="1" pageScale="1" pageWidth="827" pageHeight="1169" math="0" shadow="0">
      <root>
        <mxCell id="0" />
        <mxCell id="1" parent="0" />
        <mxCell id="cLgiqZOFw2n5dgF42g_r-13" style="edgeStyle=orthogonalEdgeStyle;rounded=0;orthogonalLoop=1;jettySize=auto;html=1;exitX=1;exitY=0.5;exitDx=0;exitDy=0;entryX=0;entryY=0.5;entryDx=0;entryDy=0;" edge="1" parent="1" source="cLgiqZOFw2n5dgF42g_r-3" target="cLgiqZOFw2n5dgF42g_r-8">
          <mxGeometry relative="1" as="geometry" />
        </mxCell>
        <mxCell id="cLgiqZOFw2n5dgF42g_r-3" value="Gestión de Seguridad" style="rounded=1;whiteSpace=wrap;html=1;" vertex="1" parent="1">
          <mxGeometry x="210" y="80" width="120" height="60" as="geometry" />
        </mxCell>
        <mxCell id="cLgiqZOFw2n5dgF42g_r-5" style="edgeStyle=orthogonalEdgeStyle;rounded=0;orthogonalLoop=1;jettySize=auto;html=1;exitX=1;exitY=0.5;exitDx=0;exitDy=0;entryX=0;entryY=0.5;entryDx=0;entryDy=0;" edge="1" parent="1" source="cLgiqZOFw2n5dgF42g_r-6" target="cLgiqZOFw2n5dgF42g_r-3">
          <mxGeometry relative="1" as="geometry" />
        </mxCell>
        <mxCell id="cLgiqZOFw2n5dgF42g_r-6" value="Gestión de Comunicación" style="rounded=1;whiteSpace=wrap;html=1;" vertex="1" parent="1">
          <mxGeometry x="65" y="80" width="120" height="60" as="geometry" />
        </mxCell>
        <mxCell id="cLgiqZOFw2n5dgF42g_r-10" style="edgeStyle=orthogonalEdgeStyle;rounded=0;orthogonalLoop=1;jettySize=auto;html=1;exitX=0.5;exitY=1;exitDx=0;exitDy=0;entryX=0.5;entryY=1;entryDx=0;entryDy=0;" edge="1" parent="1" source="cLgiqZOFw2n5dgF42g_r-8" target="cLgiqZOFw2n5dgF42g_r-6">
          <mxGeometry relative="1" as="geometry">
            <Array as="points">
              <mxPoint x="430" y="180" />
              <mxPoint x="125" y="180" />
            </Array>
          </mxGeometry>
        </mxCell>
        <mxCell id="cLgiqZOFw2n5dgF42g_r-12" style="edgeStyle=orthogonalEdgeStyle;rounded=0;orthogonalLoop=1;jettySize=auto;html=1;exitX=1;exitY=0.5;exitDx=0;exitDy=0;entryX=0;entryY=0.5;entryDx=0;entryDy=0;" edge="1" parent="1" source="cLgiqZOFw2n5dgF42g_r-8" target="cLgiqZOFw2n5dgF42g_r-11">
          <mxGeometry relative="1" as="geometry" />
        </mxCell>
        <mxCell id="cLgiqZOFw2n5dgF42g_r-8" value="Procesamiento de Transacciones" style="rounded=1;whiteSpace=wrap;html=1;" vertex="1" parent="1">
          <mxGeometry x="354" y="80" width="120" height="60" as="geometry" />
        </mxCell>
        <mxCell id="cLgiqZOFw2n5dgF42g_r-11" value="Gestión de Almacenamiento" style="rounded=1;whiteSpace=wrap;html=1;" vertex="1" parent="1">
          <mxGeometry x="500" y="80" width="120" height="60" as="geometry" />
        </mxCell>
      </root>
    </mxGraphModel>
  </diagram>
</mxfile>
